<svg width="137" height="54" viewBox="0 0 137 54" fill="none" xmlns="http://www.w3.org/2000/svg">
<path d="M105.068 50.0095L107.757 52.735C108.895 53.889 110.736 53.889 111.862 52.735L135.402 28.8812C136.541 27.7271 136.541 25.8611 135.402 24.7193L111.874 0.865528C110.736 -0.28849 108.895 -0.28849 107.769 0.865528L105.081 3.59098C103.93 4.75727 103.954 6.66017 105.129 7.80191L119.709 21.8834L84.9063 21.8834C83.2958 21.8834 82 23.197 82 24.8298V28.7584C82 30.3912 83.2958 31.7048 84.9063 31.7048L119.709 31.7048L105.117 45.7986C103.93 46.9403 103.906 48.8432 105.068 50.0095V50.0095Z" fill="#0070A0"/>
<path d="M1.448 34C1.288 34 1.152 33.944 1.04 33.832C0.928 33.72 0.872 33.584 0.872 33.424V17.8C0.872 17.624 0.92 17.48 1.016 17.368C1.128 17.256 1.272 17.2 1.448 17.2H3.296C3.488 17.2 3.632 17.24 3.728 17.32C3.824 17.384 3.912 17.472 3.992 17.584L10.904 28.336V17.8C10.904 17.624 10.952 17.48 11.048 17.368C11.16 17.256 11.304 17.2 11.48 17.2H13.496C13.672 17.2 13.816 17.256 13.928 17.368C14.04 17.48 14.096 17.624 14.096 17.8V33.4C14.096 33.576 14.04 33.72 13.928 33.832C13.816 33.944 13.68 34 13.52 34H11.648C11.376 34 11.144 33.872 10.952 33.616L4.064 23.104V33.424C4.064 33.6 4.008 33.744 3.896 33.856C3.784 33.952 3.64 34 3.464 34H1.448ZM18.6567 34C18.4967 34 18.3607 33.944 18.2487 33.832C18.1367 33.72 18.0807 33.584 18.0807 33.424V17.8C18.0807 17.624 18.1287 17.48 18.2247 17.368C18.3367 17.256 18.4807 17.2 18.6567 17.2H29.2168C29.3928 17.2 29.5368 17.256 29.6487 17.368C29.7608 17.48 29.8168 17.624 29.8168 17.8V19.384C29.8168 19.56 29.7608 19.704 29.6487 19.816C29.5368 19.912 29.3928 19.96 29.2168 19.96H21.3208V24.208H28.6888C28.8648 24.208 29.0088 24.264 29.1208 24.376C29.2328 24.472 29.2888 24.608 29.2888 24.784V26.272C29.2888 26.448 29.2328 26.592 29.1208 26.704C29.0088 26.8 28.8648 26.848 28.6888 26.848H21.3208V31.24H29.4088C29.5848 31.24 29.7288 31.296 29.8408 31.408C29.9528 31.52 30.0088 31.664 30.0088 31.84V33.424C30.0088 33.6 29.9528 33.744 29.8408 33.856C29.7288 33.952 29.5848 34 29.4088 34H18.6567ZM32.3144 34C32.1704 34 32.0504 33.952 31.9544 33.856C31.8584 33.76 31.8104 33.64 31.8104 33.496C31.8104 33.4 31.8344 33.304 31.8824 33.208L37.2584 25.432L32.2184 17.992C32.1704 17.912 32.1464 17.816 32.1464 17.704C32.1464 17.56 32.1944 17.44 32.2904 17.344C32.3864 17.248 32.5064 17.2 32.6504 17.2H35.0984C35.3864 17.2 35.6344 17.352 35.8424 17.656L39.3704 22.84L42.9224 17.656C43.1304 17.352 43.3784 17.2 43.6664 17.2H45.9944C46.1384 17.2 46.2584 17.248 46.3544 17.344C46.4504 17.44 46.4984 17.56 46.4984 17.704C46.4984 17.816 46.4664 17.912 46.4024 17.992L41.3864 25.432L46.7624 33.208C46.8264 33.336 46.8584 33.432 46.8584 33.496C46.8584 33.64 46.8024 33.76 46.6904 33.856C46.5944 33.952 46.4824 34 46.3544 34H43.8104C43.5064 34 43.2664 33.856 43.0904 33.568L39.2504 28.144L35.4824 33.568C35.2744 33.856 35.0264 34 34.7384 34H32.3144ZM53.6531 34C53.4931 34 53.3571 33.944 53.2451 33.832C53.1331 33.72 53.0771 33.584 53.0771 33.424V20.152H48.6371C48.4771 20.152 48.3411 20.096 48.2291 19.984C48.1171 19.872 48.0611 19.736 48.0611 19.576V17.8C48.0611 17.624 48.1091 17.48 48.2051 17.368C48.3171 17.256 48.4611 17.2 48.6371 17.2H60.8771C61.0531 17.2 61.1971 17.256 61.3091 17.368C61.4211 17.48 61.4771 17.624 61.4771 17.8V19.576C61.4771 19.736 61.4211 19.872 61.3091 19.984C61.1971 20.096 61.0531 20.152 60.8771 20.152H56.4611V33.424C56.4611 33.584 56.4051 33.72 56.2931 33.832C56.1811 33.944 56.0371 34 55.8611 34H53.6531Z" fill="black"/>
</svg>
