<svg width="137" height="54" viewBox="0 0 137 54" fill="none" xmlns="http://www.w3.org/2000/svg">
<path d="M31.1877 50.0095L28.4994 52.735C27.3611 53.889 25.5205 53.889 24.3943 52.735L0.853711 28.8812C-0.28457 27.7271 -0.28457 25.8611 0.853711 24.7193L24.3822 0.865528C25.5205 -0.28849 27.3611 -0.28849 28.4873 0.865528L31.1756 3.59098C32.326 4.75727 32.3018 6.66017 31.1271 7.80191L16.5475 21.8834L51.3498 21.8834C52.9604 21.8834 54.2561 23.197 54.2561 24.8298V28.7584C54.2561 30.3912 52.9604 31.7048 51.3498 31.7048L16.5475 31.7048L31.1393 45.7986C32.326 46.9403 32.3502 48.8432 31.1877 50.0095Z" fill="#47C8FF"/>
<path d="M74.448 34C74.288 34 74.152 33.944 74.04 33.832C73.928 33.72 73.872 33.584 73.872 33.424V17.8C73.872 17.624 73.92 17.48 74.016 17.368C74.128 17.256 74.272 17.2 74.448 17.2H81.408C83.28 17.2 84.672 17.616 85.584 18.448C86.512 19.264 86.976 20.384 86.976 21.808C86.976 22.64 86.768 23.352 86.352 23.944C85.952 24.52 85.48 24.936 84.936 25.192C85.608 25.496 86.168 25.992 86.616 26.68C87.08 27.368 87.312 28.152 87.312 29.032C87.312 30.52 86.808 31.72 85.8 32.632C84.808 33.544 83.408 34 81.6 34H74.448ZM80.976 24.088C81.808 24.088 82.44 23.888 82.872 23.488C83.304 23.088 83.52 22.552 83.52 21.88C83.52 21.192 83.304 20.664 82.872 20.296C82.44 19.912 81.808 19.72 80.976 19.72H77.208V24.088H80.976ZM81.216 31.456C82.048 31.456 82.696 31.232 83.16 30.784C83.624 30.32 83.856 29.736 83.856 29.032C83.856 28.312 83.624 27.728 83.16 27.28C82.696 26.816 82.048 26.584 81.216 26.584H77.208V31.456H81.216ZM89.3222 34C89.1942 34 89.0742 33.952 88.9622 33.856C88.8662 33.76 88.8182 33.64 88.8182 33.496L88.8662 33.28L94.6502 17.8C94.7622 17.4 95.0422 17.2 95.4902 17.2H98.1062C98.5222 17.2 98.8022 17.4 98.9462 17.8L104.73 33.28C104.746 33.328 104.754 33.4 104.754 33.496C104.754 33.64 104.706 33.76 104.61 33.856C104.514 33.952 104.402 34 104.274 34H102.186C101.978 34 101.818 33.952 101.706 33.856C101.594 33.76 101.522 33.656 101.49 33.544L100.362 30.616H93.2342L92.1062 33.544C91.9782 33.848 91.7462 34 91.4102 34H89.3222ZM99.5222 27.856L96.7862 20.44L94.0742 27.856H99.5222ZM113.387 34.24C111.179 34.24 109.467 33.672 108.251 32.536C107.051 31.4 106.411 29.8 106.331 27.736C106.315 27.304 106.307 26.6 106.307 25.624C106.307 24.632 106.315 23.912 106.331 23.464C106.411 21.416 107.059 19.824 108.275 18.688C109.507 17.536 111.211 16.96 113.387 16.96C114.811 16.96 116.051 17.208 117.107 17.704C118.163 18.184 118.979 18.848 119.555 19.696C120.131 20.528 120.435 21.472 120.467 22.528V22.576C120.467 22.704 120.411 22.816 120.299 22.912C120.203 22.992 120.091 23.032 119.963 23.032H117.683C117.491 23.032 117.347 22.992 117.251 22.912C117.155 22.832 117.075 22.68 117.011 22.456C116.755 21.448 116.331 20.744 115.739 20.344C115.147 19.928 114.355 19.72 113.363 19.72C111.059 19.72 109.859 21.008 109.763 23.584C109.747 24.016 109.739 24.68 109.739 25.576C109.739 26.472 109.747 27.152 109.763 27.616C109.859 30.192 111.059 31.48 113.363 31.48C114.355 31.48 115.147 31.272 115.739 30.856C116.347 30.44 116.771 29.736 117.011 28.744C117.059 28.52 117.131 28.368 117.227 28.288C117.339 28.208 117.491 28.168 117.683 28.168H119.963C120.107 28.168 120.227 28.216 120.323 28.312C120.435 28.408 120.483 28.528 120.467 28.672C120.435 29.728 120.131 30.68 119.555 31.528C118.979 32.36 118.163 33.024 117.107 33.52C116.051 34 114.811 34.24 113.387 34.24ZM124.129 34C123.969 34 123.833 33.944 123.721 33.832C123.609 33.72 123.553 33.584 123.553 33.424V17.8C123.553 17.624 123.601 17.48 123.697 17.368C123.809 17.256 123.953 17.2 124.129 17.2H126.241C126.417 17.2 126.561 17.256 126.673 17.368C126.785 17.48 126.841 17.624 126.841 17.8V23.416L132.265 17.632C132.473 17.344 132.785 17.2 133.201 17.2H135.577C135.705 17.2 135.817 17.248 135.913 17.344C136.025 17.44 136.081 17.56 136.081 17.704C136.081 17.816 136.049 17.912 135.985 17.992L129.385 25.24L136.441 33.184C136.521 33.28 136.561 33.384 136.561 33.496C136.561 33.64 136.505 33.76 136.393 33.856C136.297 33.952 136.185 34 136.057 34H133.585C133.185 34 132.873 33.856 132.649 33.568L126.841 27.208V33.424C126.841 33.6 126.785 33.744 126.673 33.856C126.561 33.952 126.417 34 126.241 34H124.129Z" fill="black"/>
</svg>
