<svg width="424" height="71" viewBox="0 0 424 71" fill="none" xmlns="http://www.w3.org/2000/svg">
<path d="M36.6043 35.0791H202.086" stroke="url(#paint0_linear)" stroke-width="15"/>
<path d="M223.439 35.0791H388.921" stroke="url(#paint1_linear)" stroke-width="15"/>
<circle cx="212" cy="35.0791" r="35.0791" fill="#47C8FF"/>
<circle cx="388.921" cy="35.0791" r="35.0791" fill="#A0A0A0"/>
<circle cx="35.0791" cy="35.0791" r="35.0791" fill="#A0A0A0"/>
<path d="M47.4215 19.5748H41.7582L42.1403 21.3428C42.1873 21.5622 42.185 21.7826 42.1604 21.9994H46.209V50.5755H23.7886V21.9994H27.8384C27.8138 21.7814 27.8126 21.5611 27.8595 21.3404L28.2417 19.5748H22.5775C21.9081 19.5748 21.3663 20.1177 21.3663 20.787V51.7877C21.3663 52.456 21.9081 52.9999 22.5775 52.9999H47.4215C48.0909 52.9999 48.6336 52.4558 48.6336 51.7877V20.7871C48.6337 20.1177 48.0909 19.5748 47.4215 19.5748Z" fill="white"/>
<path d="M43.3552 28.3368H35.0751C34.4045 28.3368 33.8628 28.8797 33.8628 29.5479C33.8628 30.2176 34.4046 30.7602 35.0751 30.7602H43.3552C44.0258 30.7602 44.5674 30.2176 44.5674 29.5479C44.5675 28.8797 44.0258 28.3368 43.3552 28.3368Z" fill="white"/>
<path d="M43.3552 35.7715H35.0751C34.4045 35.7715 33.8628 36.3143 33.8628 36.9837C33.8628 37.6523 34.4046 38.1961 35.0751 38.1961H43.3552C44.0258 38.1961 44.5674 37.652 44.5674 36.9837C44.5675 36.3143 44.0258 35.7715 43.3552 35.7715Z" fill="white"/>
<path d="M25.8616 28.6217C25.3504 29.0531 25.2845 29.8178 25.716 30.3299L27.4842 32.4254C27.7152 32.6995 28.054 32.8556 28.4104 32.8556C28.4399 32.8556 28.4691 32.8544 28.4995 32.8521C28.8864 32.8241 29.237 32.6107 29.4411 32.28L32.6219 27.1303C32.9737 26.5604 32.798 25.8146 32.2282 25.4631C31.6584 25.1091 30.9126 25.2871 30.5607 25.8569L28.2581 29.5832L27.5687 28.767C27.137 28.2548 26.3739 28.1891 25.8616 28.6217Z" fill="white"/>
<path d="M28.7645 35.1667C27.7599 35.1667 26.946 35.9805 26.946 36.984C26.946 37.9878 27.7598 38.8014 28.7645 38.8014C29.7683 38.8014 30.582 37.9878 30.582 36.984C30.582 35.9803 29.7683 35.1667 28.7645 35.1667Z" fill="white"/>
<path d="M43.3552 43.0432H35.0751C34.4045 43.0432 33.8628 43.585 33.8628 44.2557C33.8628 44.924 34.4046 45.4668 35.0751 45.4668H43.3552C44.0258 45.4668 44.5674 44.924 44.5674 44.2557C44.5675 43.5849 44.0258 43.0432 43.3552 43.0432Z" fill="white"/>
<path d="M28.7645 42.4384C27.7599 42.4384 26.946 43.252 26.946 44.2558C26.946 45.2593 27.7598 46.0733 28.7645 46.0733C29.7683 46.0733 30.582 45.2596 30.582 44.2558C30.582 43.252 29.7683 42.4384 28.7645 42.4384Z" fill="white"/>
<path d="M29.8573 22.6045H40.1402C40.3923 22.6045 40.6303 22.4918 40.7884 22.295C40.9468 22.1001 41.0079 21.8425 40.9537 21.596L40.1026 17.6566C40.0194 17.2733 39.6807 17 39.2889 17H30.7097C30.3183 17 29.9795 17.2734 29.8961 17.6566L29.0437 21.596C28.9922 21.8424 29.0529 22.1001 29.2102 22.295C29.3685 22.4919 29.6066 22.6045 29.8573 22.6045Z" fill="white"/>
<g clip-path="url(#clip0)">
<path d="M199.955 24.6934L205.635 18.958C206.245 18.3428 207.071 17.9941 207.931 17.9941H221.75C223.544 18.001 225 19.4707 225 21.2822V49.7197C225 51.5312 223.544 53.001 221.75 53.001H202.25C200.456 53.001 199 51.5312 199 49.7197V27.0176C199 26.1494 199.345 25.3086 199.955 24.6934ZM202.514 26.751H207.667V21.5488L202.514 26.751ZM221.75 49.7197V21.2822H210.917V28.3916C210.917 29.3008 210.192 30.0322 209.292 30.0322H202.25V49.7197H221.75ZM207.396 33.3135H209.346C209.644 33.3135 209.915 33.4775 210.057 33.7441C211.276 36.0068 211.56 36.6426 211.993 37.6885C212.934 35.6992 212.46 36.5059 213.93 33.7441C214.072 33.4775 214.349 33.3135 214.647 33.3135H216.604C217.234 33.3135 217.62 33.9971 217.308 34.5439L214.173 39.876L217.308 45.208C217.627 45.7549 217.234 46.4385 216.604 46.4385H214.647C214.349 46.4385 214.079 46.2744 213.936 46.0078C212.467 43.2734 212.379 42.9316 212 42.0635C210.991 44.1279 211.601 43.1504 210.064 46.0078C209.921 46.2744 209.644 46.4385 209.346 46.4385H207.396C206.766 46.4385 206.38 45.7549 206.692 45.208L209.833 39.876C209.786 39.8008 207.782 36.4238 206.698 34.5439C206.38 33.9971 206.773 33.3135 207.396 33.3135Z" fill="white"/>
</g>
<path d="M399.375 19.875H393.333C393.333 17.1861 391.166 15 388.5 15C385.834 15 383.667 17.1861 383.667 19.875H377.625C375.624 19.875 374 21.5127 374 23.5312V50.3438C374 52.3623 375.624 54 377.625 54H399.375C401.376 54 403 52.3623 403 50.3438V23.5312C403 21.5127 401.376 19.875 399.375 19.875ZM388.5 18.0469C389.504 18.0469 390.312 18.8619 390.312 19.875C390.312 20.8881 389.504 21.7031 388.5 21.7031C387.496 21.7031 386.688 20.8881 386.688 19.875C386.688 18.8619 387.496 18.0469 388.5 18.0469ZM397.653 35.7035L386.854 46.5047C386.499 46.8627 385.925 46.8551 385.57 46.4971L379.332 40.152C378.977 39.7939 378.984 39.215 379.339 38.857L381.484 36.709C381.839 36.351 382.413 36.3586 382.768 36.7166L386.242 40.251L394.247 32.2377C394.602 31.8797 395.176 31.8873 395.531 32.2453L397.661 34.4086C398.016 34.7742 398.008 35.3455 397.653 35.7035Z" fill="white"/>
<defs>
<linearGradient id="paint0_linear" x1="202" y1="34.9994" x2="68.5" y2="34.9994" gradientUnits="userSpaceOnUse">
<stop stop-color="#47C8FF"/>
<stop offset="1" stop-color="#A0A0A0"/>
</linearGradient>
<linearGradient id="paint1_linear" x1="223.439" y1="35.0791" x2="353" y2="35.0791" gradientUnits="userSpaceOnUse">
<stop stop-color="#47C8FF"/>
<stop offset="1" stop-color="#A0A0A0"/>
</linearGradient>
<clipPath id="clip0">
<rect width="26" height="35" fill="white" transform="matrix(-1 0 0 1 225 18)"/>
</clipPath>
</defs>
</svg>
