<svg width="132" height="95" viewBox="0 0 132 95" fill="none" xmlns="http://www.w3.org/2000/svg">
<circle cx="63.5" cy="47.5" r="47.5" fill="url(#paint0_linear)"/>
<path fill-rule="evenodd" clip-rule="evenodd" d="M56.9305 0.450623C56.8672 1.02725 56.7365 1.57668 56.5061 2.03989C55.8688 3.32122 54.307 3.55999 52.8512 3.78256C51.2486 4.02758 49.7744 4.25296 49.8037 5.82823C49.836 7.56506 50.7856 8.52257 52.135 9.61657C53.4068 10.6477 54.8947 10.1103 56.37 9.57746C57.8684 9.03627 59.3536 8.49984 60.5859 9.61657C64.2276 12.9169 56.5425 16.7674 52.135 18.9417C49.8528 20.0676 47.6518 19.8392 45.6737 19.6339C43.0517 19.3618 40.8213 19.1303 39.3129 22.1472C38.7879 23.1972 38.7159 23.8693 38.6601 24.3904C38.5752 25.183 38.5278 25.6264 36.9816 26.5184C35.503 27.3715 32.6104 26.5184 32.6104 26.5184C32.6104 26.5184 30.9051 32.9531 32.6104 36.4264C34.3659 40.0018 40.7699 42.546 40.7699 42.546C40.7699 42.546 50.5812 40.9146 56.5061 42.546C57.2442 42.7493 57.9864 42.9429 58.7245 43.1355C64.8034 44.7217 70.6107 46.237 71.6595 52.454C72.3269 56.4105 70.6918 58.953 68.6689 62.0986C68.3143 62.6499 67.9478 63.2198 67.5797 63.819C66.2814 65.9327 64.5578 67.0722 62.9843 68.1125C60.7789 69.5705 58.8685 70.8335 58.8374 74.3098C58.8255 75.6349 59.0329 76.7525 59.2262 77.795C59.5677 79.6355 59.8657 81.2421 58.8374 83.3436C57.9468 85.1636 56.5061 85.9663 56.5061 85.9663C56.5061 85.9663 43.1429 81.5801 40.7699 74.3098C40.2015 72.5682 40.2579 71.1716 40.3117 69.8421C40.3781 68.1986 40.4404 66.6575 39.3129 64.6933C38.3981 63.0996 37.1758 62.4174 35.9743 61.7467C34.6988 61.0348 33.4467 60.3359 32.6104 58.5736C31.5327 56.3025 33.2374 54.3451 34.9144 52.4196C36.6232 50.4576 38.3032 48.5286 36.9816 46.3344C35.79 44.3561 33.9464 44.0873 31.9428 43.7952C30.5361 43.5902 29.0506 43.3737 27.6564 42.546C24.1659 40.4739 20.5607 36.47 18.1187 33.429C23.4893 16.0885 38.5254 2.99693 56.9305 0.450623Z" fill="url(#paint1_linear)"/>
<path fill-rule="evenodd" clip-rule="evenodd" d="M97.8268 80.3317C105.987 71.8021 111 60.2365 111 47.5C111 28.3843 99.7081 11.9059 83.4308 4.37115H83.0245C83.0245 4.37115 80.6967 10.616 83.0245 13.1135C83.6905 13.8281 84.5209 13.9642 85.3442 14.0991C86.1959 14.2387 87.0401 14.377 87.6871 15.1534C89.5084 17.339 89.7808 20.5124 87.6871 22.4386C86.7425 23.3076 85.6425 22.9703 84.5755 22.6431C83.4665 22.303 82.3933 21.9738 81.5675 23.0215C79.8737 25.1702 80.8743 26.2836 83.0245 27.9754C85.3498 29.8051 87.9683 29.3256 90.6012 27.9754C92.1066 27.2035 94.2416 26.8576 95.8465 27.3926C96.4383 27.5899 97.0328 27.7844 97.6181 27.9759C103.086 29.7652 107.757 31.2937 101.966 32.3466C101.032 32.5164 100.328 32.2892 99.6206 32.0613C98.9244 31.8368 98.2257 31.6116 97.3036 31.7638C95.8087 32.0106 95.6273 31.8239 95.4071 31.5974C95.1979 31.3821 94.9538 31.1309 93.5153 31.181C92.9189 31.2017 92.3383 31.212 91.7753 31.2219C87.6037 31.2953 84.4071 31.3516 83.0245 35.5521C82.2417 37.9303 83.0245 44.8773 83.0245 44.8773C83.0245 44.8773 87.508 49.6358 90.6012 52.454C91.8034 53.5493 93.0653 54.2544 94.2616 54.9228C96.2163 56.0151 97.9957 57.0093 99.0521 59.4478C100.545 62.8939 99.0521 69.0644 99.0521 69.0644C99.0521 69.0644 96.1834 72.7256 96.138 75.4754C96.1118 77.0645 97.0182 78.9619 97.8268 80.3317Z" fill="url(#paint2_linear)"/>
<path d="M70.11 70.8868L68.5993 53.0441C68.5446 52.3982 69.015 51.8305 69.6602 51.7685C74.2363 51.3287 91.2222 49.3613 100.218 43.7117C105.109 40.6398 111.073 34.707 113.305 32.4113C113.791 31.9121 114.601 31.9376 115.052 32.4681L118.529 36.5592C118.894 36.9885 118.901 37.6141 118.538 38.0444C116.451 40.512 109.538 48.4648 104.298 51.8712C96.9578 56.6419 85.3558 60.0307 85.3558 60.0307L85.6472 61.7792C90.4472 61.6059 98.7463 59.3247 103.5 57.5C108.915 55.4216 115.823 48.8205 118.26 46.3793C118.747 45.8911 119.551 45.9134 120.002 46.4355L123.953 51.0102C124.366 51.489 124.327 52.2042 123.852 52.6222C121.211 54.9469 112.889 62.0772 106.337 65.5675C96.7347 70.6833 76.2482 71.7554 71.2965 71.9431C70.6812 71.9664 70.162 71.5004 70.11 70.8868Z" fill="#235197"/>
<path d="M15.1258 51.2883C8.37752 45.8124 2.67076 33.7951 1.20912 30.547C0.989852 30.0597 1.14557 29.4982 1.57199 29.1762L14.19 19.6483C14.7059 19.2587 15.438 19.3559 15.8387 19.8631C18.1353 22.7703 25.5991 31.7464 32.6104 34.9693C38.8853 37.8537 49.2184 38.1621 52.6979 38.1805C53.3519 38.1839 53.8834 38.7128 53.8834 39.3667V44.0944C53.8834 44.7014 53.4225 45.2043 52.8164 45.2374C49.2814 45.4309 37.7062 45.7884 29.4049 42.8374C26.6066 41.8427 22.4004 39.4526 19.2772 37.5659C18.2264 36.9311 17.0603 38.0869 17.7536 39.1001C19.1658 41.164 20.969 43.558 22.7024 45.1687C28.6436 50.6893 40.705 53.457 44.6983 54.249C45.3956 54.3873 45.822 55.1014 45.6065 55.7789L44.2645 59.9965C44.0963 60.525 43.5861 60.8613 43.0363 60.7883C39.0216 60.2557 23.142 57.7932 15.1258 51.2883Z" fill="#3582E5"/>
<path d="M108.617 29.3887C112.088 25.5957 111.344 23.9364 111.344 23.9364C111.344 23.9364 109.609 24.1734 108.617 23.6993C107.625 23.2252 106.633 22.4391 106.633 21.5658C106.633 19.6693 106.956 19.4425 108.369 18.484C110.106 17.3053 112.832 18.4841 112.832 18.4841C112.832 18.4841 112.251 16.4701 112.832 15.4023C113.948 13.3489 118.59 13.7648 120.518 15.1653C122.107 16.3201 123.045 17.8332 122.501 19.6693C122.163 20.81 120.518 22.0399 120.518 22.0399C120.518 22.0399 122.362 22.0399 122.501 24.4105C122.618 26.41 120.125 27.6657 118.038 27.4922C116.185 27.3382 115.559 26.0699 115.559 26.0699C115.559 26.0699 114.567 27.7293 111.592 30.0997C109.075 32.1051 101.675 35.5522 101.675 35.5522C101.675 35.5522 107.033 31.1193 108.617 29.3887Z" fill="url(#paint3_linear)"/>
<path d="M111 70.0186C115.478 67.6952 120.713 64.5902 120.713 64.5902C120.713 64.5902 119.547 62.3046 121.49 61.1618C122.912 60.3254 124.537 60.5444 126.152 61.1618C127.908 61.8326 127.318 64.3045 127.318 64.3045C127.318 64.3045 130.842 64.1626 131.592 65.4473C132.657 67.2727 131.47 69.4752 128.872 70.0186C126.606 70.4923 124.598 68.8757 124.598 68.8757C124.598 68.8757 126.152 70.3043 124.987 71.7328C123.972 72.9766 121.878 73.1613 121.878 73.1613C121.878 73.1613 118.425 73.5268 117.605 72.0185C116.827 70.59 117.605 70.0186 117.605 70.0186C117.605 70.0186 115.302 71.1506 113.719 71.7328C109.375 73.3312 101.675 74.0184 101.675 74.0184C101.675 74.0184 107.555 71.8056 111 70.0186Z" fill="url(#paint4_linear)"/>
<path d="M69.8206 78.3626C62.7148 77.484 48.638 71.7835 48.638 71.7835C48.638 71.7835 67.8417 76.2161 76.1428 76.4415C86.4267 76.7207 104.042 73.7112 104.042 73.7112C104.042 73.7112 97.6136 75.8873 93.4206 76.9388C84.2597 79.236 77.808 79.3503 69.8206 78.3626Z" fill="url(#paint5_linear)"/>
<path d="M0.588839 15.5164C1.08814 13.4003 2.48427 12.3239 4.52804 11.5822C6.34663 10.9221 9.8891 11.6124 11.8083 11.8563C16.8064 12.4916 23.8854 16.3938 23.8854 16.3938C23.8854 16.3938 16.5783 13.4941 11.7535 13.3124C9.42368 13.2246 6.00966 13.8192 4.67667 15.3788C3.12391 17.1955 6.99042 23.6312 6.99042 23.6312C6.99042 23.6312 -0.0566341 18.2521 0.588839 15.5164Z" fill="url(#paint6_linear)"/>
<defs>
<linearGradient id="paint0_linear" x1="63.5" y1="0" x2="63.5" y2="95" gradientUnits="userSpaceOnUse">
<stop stop-color="#20BCFF"/>
<stop offset="1" stop-color="#9CF3FF"/>
</linearGradient>
<linearGradient id="paint1_linear" x1="43.3926" y1="-4.07973" x2="43.3926" y2="85.9663" gradientUnits="userSpaceOnUse">
<stop stop-color="#0090BD"/>
<stop offset="1" stop-color="#60D13E" stop-opacity="0.52"/>
</linearGradient>
<linearGradient id="paint2_linear" x1="102.326" y1="4.37115" x2="102.326" y2="82.4921" gradientUnits="userSpaceOnUse">
<stop stop-color="#009688"/>
<stop offset="1" stop-color="#88ECB1" stop-opacity="0.74"/>
</linearGradient>
<linearGradient id="paint3_linear" x1="110" y1="19.5" x2="88.8089" y2="27.0128" gradientUnits="userSpaceOnUse">
<stop stop-color="#ADE7EB"/>
<stop offset="1" stop-color="white" stop-opacity="0"/>
</linearGradient>
<linearGradient id="paint4_linear" x1="128.485" y1="63.2362" x2="89.1442" y2="76.0583" gradientUnits="userSpaceOnUse">
<stop stop-color="#ADE7EB"/>
<stop offset="1" stop-color="white" stop-opacity="0"/>
</linearGradient>
<linearGradient id="paint5_linear" x1="75.3891" y1="77.6441" x2="94.8681" y2="76.5979" gradientUnits="userSpaceOnUse">
<stop stop-color="white"/>
<stop offset="1" stop-color="white" stop-opacity="0"/>
</linearGradient>
<linearGradient id="paint6_linear" x1="8.5" y1="13.5" x2="-10.4329" y2="22.9117" gradientUnits="userSpaceOnUse">
<stop stop-color="#ADE7EB"/>
<stop offset="1" stop-color="white" stop-opacity="0"/>
</linearGradient>
</defs>
</svg>
